# xmcd
#
# Track frame offsets:
#	150
#	25142
#	43570
#	58092
#	70455
#	89305
#	101870
#	124110
#	143755
#	158940
#	170865
#
# Disc length: 2462 seconds
#
# Revision: 0
# Processed by: cddbd v1.5PL3 Copyright (c) Steve Scherf et al.
# Submitted via: dBpowerAMP V4.0
#
DISCID=9e099c0b
DTITLE=Various Artist - Never Forget
DYEAR=1999
DGENRE=Country
TTITLE0=R.W.Chipps - LonelyTeardrops - R.W. Chipps
TTITLE1=R.W.Chipps - Baby Go On - 
TTITLE2=R.W.Chipps - I Can't Go On LikeThis - 
TTITLE3=R.W.Chipps - In Her Dreams - 
TTITLE4=R.W.Chipps - Don't Bother Knockin' - 
TTITLE5=R.W.Chipps - You Should Have Listened - 
TTITLE6=R.W.Chipps - It's Friday - 
TTITLE7=R.W.Chipps - Grandad's Woohshed - 
TTITLE8=R.W.Chipps - Let's Just Pretend - 
TTITLE9=R.W.Chipps - Looking For Something  ( That Can't Be Found ) - 
TTITLE10=R.W.Chipps - Do You Believe In Magic - 
EXTD=one of the best country albums from the heart ive ever heard
EXTT0=
EXTT1=
EXTT2=
EXTT3=
EXTT4=
EXTT5=
EXTT6=
EXTT7=
EXTT8=
EXTT9=
EXTT10=
PLAYORDER=
